<svg xmlns="http://www.w3.org/2000/svg" xmlns:xlink="http://www.w3.org/1999/xlink" version="1.1" id="Your_Icon" x="0px" y="0px" width="100px" height="100px" viewBox="0 0 100 100" enable-background="new 0 0 100 100" xml:space="preserve">
<g id="Shape_1">
	<g>
		<path fill-rule="evenodd" clip-rule="evenodd" fill="#000000" d="M74.75,10.375H42.621l-3.871,3.648v6.227c0,1.104-0.896,2-2,2    h-9.981l-0.207,0.218l-3.813,4.024v57.025c0,2.209,1.791,4,4,4h30.174l-4.75-4.75H29.125c-1.104,0-2-0.896-2-2V26.449    l11.688-0.136c0,0,2.188-0.188,3-0.875s0.75-2.375,0.75-2.375v-8.795H72.25c1.104,0,2,0.896,2,2V66.33l4.5,0.008V14.375    C78.75,12.166,76.959,10.375,74.75,10.375z M74.25,80.768c0,1.104-0.896,2-2,2h-0.236l-4.75,4.75h7.486c2.209,0,4-1.791,4-4    v-7.486l-4.5,4.5V80.768z"/>
	</g>
</g>
<g id="Shape_2">
	<g>
		<polygon fill-rule="evenodd" clip-rule="evenodd" fill="#000000" points="73.365,69.789 62.227,80.614 51.729,69.875     44.733,69.789 62.323,86.629 79.663,69.789   "/>
	</g>
</g>
<g id="Shape_3">
	<g>
		<rect x="60.125" y="46.531" fill-rule="evenodd" clip-rule="evenodd" fill="#000000" width="4.063" height="34.75"/>
	</g>
</g>
</svg>