<svg xmlns:x="http://ns.adobe.com/Extensibility/1.0/" xmlns:i="http://ns.adobe.com/AdobeIllustrator/10.0/" xmlns:graph="http://ns.adobe.com/Graphs/1.0/" xmlns="http://www.w3.org/2000/svg" xmlns:xlink="http://www.w3.org/1999/xlink" xmlns:a="http://ns.adobe.com/AdobeSVGViewerExtensions/3.0/" version="1.1" id="Layer_1" x="0px" y="0px" width="100px" height="100px" viewBox="0 0 100 100" enable-background="new 0 0 100 100" xml:space="preserve">
<path d="M25.806,56.668h47.137c1.818,0,3.308-1.499,3.308-3.335V24.999c0-1.832-1.489-3.333-3.308-3.333H25.806  c-1.816,0-3.306,1.5-3.306,3.333v28.334C22.5,55.169,23.989,56.668,25.806,56.668z M26.25,25.417H72.5v27.501H26.25V25.417z"/>
<path d="M93.525,54.932c-1.465-1.662-3.921-3.146-7.019-4.424c-0.481-0.197-0.989-0.387-1.507-0.573v-4.102L80,50l5,4.168v-2.539  c1.431,0.725,2.559,1.509,3.24,2.351c1.079,1.328,1.027,2.666-0.059,3.95c-1.147,1.351-3.44,2.63-6.738,3.758  c-3.447,1.172-7.935,2.158-13.242,2.861c-4.695,0.62-9.961,0.991-15.537,1.084l0.068,5.981c6.999-0.125,13.574-0.696,19.348-1.665  c6.316-1.06,11.531-2.534,15.396-4.258c3.65-1.636,6.023-3.467,7.005-5.369C95.403,58.543,95.103,56.717,93.525,54.932z"/>
<path d="M31.667,64.529c-5.251-0.701-9.697-1.68-13.112-2.842c-3.299-1.128-5.589-2.407-6.733-3.758  c-1.089-1.284-1.138-2.622-0.062-3.95c1.019-1.257,2.962-2.395,5.535-3.381c0.879-0.338,1.86-0.653,2.886-0.956v-1.31  c-2.449,0.645-4.715,1.367-6.685,2.174c-3.101,1.278-5.552,2.762-7.021,4.424c-1.577,1.785-1.878,3.611-0.957,5.391  c0.986,1.902,3.359,3.733,7.012,5.369c3.859,1.724,9.074,3.198,15.391,4.258c1.206,0.2,2.476,0.371,3.747,0.539v7.845l10-9.998  l-10-10.002V64.529z"/>
</svg>