<?xml version="1.0" encoding="utf-8"?>
<!-- Generator: Adobe Illustrator 19.2.1, SVG Export Plug-In . SVG Version: 6.00 Build 0)  -->
<svg version="1.1" xmlns="http://www.w3.org/2000/svg" xmlns:xlink="http://www.w3.org/1999/xlink" x="0px" y="0px"
	 viewBox="0 0 729.779 235.76" enable-background="new 0 0 729.779 235.76" xml:space="preserve">
<g id="Layer_1">
	<rect id="Background" display="none" fill="#FFFFFF" width="729.779" height="235.76"/>
	<g display="none">
		<polygon display="inline" fill="#FFFFFF" points="111.784,146.854 86.479,132.074 86.479,102.253 111.784,116.085 		"/>
	</g>
	<g display="none">
		<polygon display="inline" fill="#FFFFFF" points="116.347,108.261 86.055,92.204 116.347,74.713 146.645,92.204 		"/>
	</g>
	<g display="none">
		<polygon display="inline" fill="#FFFFFF" points="146.664,132.128 121.159,146.854 121.159,116.201 146.664,102.42 		"/>
	</g>
	<g display="none">

			<line display="inline" fill="none" stroke="#B7B7B7" stroke-width="0.25" stroke-miterlimit="10" x1="-61.989" y1="75.057" x2="759.511" y2="75.057"/>

			<line display="inline" fill="none" stroke="#B7B7B7" stroke-width="0.5" stroke-miterlimit="10" x1="56.971" y1="-50.083" x2="56.971" y2="289.417"/>

			<line display="inline" fill="none" stroke="#B7B7B7" stroke-width="0.5" stroke-miterlimit="10" x1="642.62" y1="-50.083" x2="642.62" y2="289.417"/>

			<line display="inline" fill="none" stroke="#B7B7B7" stroke-width="0.25" stroke-miterlimit="10" x1="-61.989" y1="146.854" x2="759.511" y2="146.854"/>
	</g>
	<g>
		<path fill="#FFFFFF" d="M245.287,94.901c-7.463,0-11.193,2.464-11.193,7.394c0,2.19,0.924,3.868,2.771,5.031
			c1.85,1.165,6.178,2.841,12.99,5.031c6.81,2.19,11.584,4.672,14.324,7.444c2.738,2.772,4.107,7.034,4.107,12.784
			c0,7.326-2.225,12.87-6.674,16.635c-4.451,3.767-10.27,5.646-17.457,5.646c-5.34,0-11.877-0.822-19.611-2.465l-3.697-0.718
			l1.438-10.987c9.172,1.232,16.188,1.85,21.051,1.85c7.254,0,10.885-3.012,10.885-9.038c0-2.189-0.84-3.901-2.518-5.134
			c-1.678-1.231-5.016-2.565-10.012-4.004c-7.939-2.259-13.537-4.945-16.787-8.061c-3.252-3.114-4.877-7.444-4.877-12.989
			c0-6.981,2.121-12.185,6.365-15.607c4.242-3.423,10.062-5.134,17.455-5.134c5.066,0,11.502,0.685,19.305,2.052l3.697,0.72
			l-1.131,11.192C256.068,95.449,249.256,94.901,245.287,94.901z"/>
		<path fill="#FFFFFF" d="M292.211,153.634h-13.76V81.758h13.76v40.866l5.236-0.923l10.166-19.407h15.402l-13.35,24.336
			l14.068,27.004h-15.506l-10.371-20.021l-5.646,0.923V153.634z"/>
		<path fill="#FFFFFF" d="M344.221,140.646c1.607,1.403,3.918,2.105,6.932,2.105c6.365,0,12.047-0.204,17.045-0.615l2.873-0.309
			l0.207,10.165c-7.873,1.916-14.992,2.875-21.359,2.875c-7.734,0-13.348-2.054-16.838-6.159
			c-3.492-4.109-5.236-10.782-5.236-20.024c0-18.415,7.562-27.621,22.691-27.621c14.924,0,22.385,7.737,22.385,23.207l-1.027,9.549
			h-30.188C341.771,136.966,342.611,139.244,344.221,140.646z M359.365,123.343c0-4.106-0.65-6.965-1.951-8.573
			c-1.301-1.607-3.576-2.413-6.828-2.413c-3.252,0-5.545,0.839-6.879,2.515c-1.336,1.681-2.037,4.503-2.104,8.472H359.365z"/>
		<path fill="#FFFFFF" d="M411.221,113.999H398.59v21.049c0,2.056,0.053,3.51,0.154,4.365c0.104,0.856,0.479,1.592,1.131,2.207
			c0.648,0.617,1.658,0.926,3.029,0.926l7.803-0.207l0.615,10.986c-4.586,1.028-8.078,1.541-10.473,1.541
			c-6.162,0-10.371-1.386-12.631-4.158c-2.258-2.771-3.389-7.89-3.389-15.352v-21.357h-6.059v-11.705h6.059V88.021h13.76v14.273
			h12.631V113.999z"/>
		<path fill="#FFFFFF" d="M439.355,101.062c3.557,0,8.111,0.549,13.654,1.643l2.773,0.616l-0.412,10.885
			c-5.406-0.548-9.412-0.822-12.012-0.822c-4.725,0-7.855,1.012-9.396,3.029c-1.539,2.019-2.311,5.837-2.311,11.449
			c0,5.613,0.772,9.464,2.311,11.552c1.541,2.089,4.705,3.133,9.498,3.133l11.91-0.821l0.412,10.986
			c-7.326,1.438-12.904,2.155-16.736,2.155c-7.6,0-13.059-2.138-16.379-6.417c-3.32-4.277-4.98-11.142-4.98-20.588
			c0-9.448,1.711-16.275,5.135-20.484C426.244,103.166,431.756,101.062,439.355,101.062z"/>
		<path fill="#FFFFFF" d="M479.707,153.634h-13.758V81.758h13.758v23c4.725-2.464,8.969-3.696,12.732-3.696
			c6.846,0,11.568,2.021,14.17,6.058c2.602,4.041,3.904,10.27,3.904,18.689v27.825h-13.76v-27.519c0-4.312-0.514-7.511-1.541-9.6
			c-1.027-2.088-3.08-3.133-6.16-3.133c-2.67,0-5.34,0.412-8.01,1.232l-1.336,0.411V153.634z"/>
		<path fill="#FFFFFF" d="M538.955,113.999v39.635h-13.76v-39.635h-5.545v-11.705h5.545v-2.26c0-7.393,1.094-12.491,3.285-15.298
			c2.191-2.809,6.094-4.211,11.705-4.211c2.467,0,5.648,0.344,9.551,1.025l2.156,0.309l-0.205,11.192
			c-3.014-0.135-5.545-0.204-7.6-0.204c-2.053,0-3.422,0.549-4.106,1.643c-0.688,1.097-1.027,2.977-1.027,5.646v2.157h12.424v11.705
			H538.955z"/>
		<path fill="#FFFFFF" d="M598.715,118.312v21.357c0.137,1.643,0.412,2.79,0.822,3.44c0.41,0.651,1.266,1.114,2.566,1.387
			l-0.41,10.37c-3.492,0-6.281-0.24-8.369-0.718c-2.088-0.481-4.193-1.438-6.314-2.876c-4.928,2.395-9.961,3.594-15.096,3.594
			c-10.609,0-15.914-5.611-15.914-16.84c0-5.475,1.471-9.359,4.414-11.654c2.943-2.293,7.461-3.645,13.555-4.055l10.986-0.823
			v-3.183c0-2.12-0.479-3.575-1.438-4.363c-0.957-0.786-2.498-1.182-4.619-1.182l-19.305,0.822l-0.41-9.551
			c7.324-1.983,14.289-2.977,20.894-2.977c6.606,0,11.361,1.369,14.273,4.107C597.26,107.907,598.715,112.29,598.715,118.312z
			 M575.611,131.866c-3.834,0.345-5.75,2.397-5.75,6.161c0,3.767,1.678,5.648,5.031,5.648c2.602,0,5.443-0.411,8.523-1.234
			l1.539-0.41v-10.986L575.611,131.866z"/>
		<path fill="#FFFFFF" d="M636.705,101.062c7.189,0,12.441,1.969,15.764,5.904c3.318,3.938,4.979,10.971,4.979,21.1
			c0,10.133-1.916,17.133-5.75,20.999c-3.834,3.868-10.439,5.802-19.818,5.802c-2.943,0-8.316-0.343-16.119-1.025l-3.902-0.411
			V81.758h13.76v22.076C629.996,101.986,633.693,101.062,636.705,101.062z M631.879,142.546c4.586,0,7.668-1.112,9.242-3.339
			c1.574-2.224,2.361-6.212,2.361-11.963c0-9.241-2.875-13.861-8.625-13.861c-2.738,0-5.338,0.343-7.805,1.027l-1.435,0.309v27.416
			C628.764,142.408,630.853,142.546,631.879,142.546z"/>
	</g>
	<g>
	</g>
	<g>
		<path fill="#FFFFFF" d="M131.721,58.49c-32.801,0-59.389,26.592-59.389,59.389c0,32.803,26.588,59.392,59.389,59.392
			s59.389-26.589,59.389-59.392C191.109,85.081,164.521,58.49,131.721,58.49z M128.221,153.627l-26.676-16.34v-29.886l26.676,16.34
			V153.627z M102.465,99.756l29.256-17.922l29.256,17.922l-29.256,17.92L102.465,99.756z M161.896,137.288l-26.676,16.34v-29.885
			l26.676-16.34V137.288z"/>
	</g>
</g>
<g id="Layer_2">
</g>
</svg>
